<svg id="Layer_1" data-name="Layer 1" xmlns="http://www.w3.org/2000/svg" xmlns:xlink="http://www.w3.org/1999/xlink" viewBox="0 0 1720 724"><defs><style>.cls-1{fill:none;}.cls-2{clip-path:url(#clip-path);}.cls-3{fill:#e97733;}</style><clipPath id="clip-path"><rect class="cls-1" width="1720" height="724"/></clipPath></defs><g class="cls-2"><path class="cls-3" d="M1720,56.92V54.21c-53.13,0-80.16-13.71-106.3-27C1587.28,13.85,1560,0,1506.18,0s-81.1,13.85-107.52,27.25c-26.14,13.25-53.17,27-106.3,27s-80.16-13.71-106.3-27C1159.64,13.85,1132.32,0,1078.54,0S997.44,13.85,971,27.25c-26.14,13.25-53.17,27-106.3,27s-80.16-13.71-106.3-27C732,13.85,704.67,0,650.89,0s-81.1,13.85-107.52,27.25c-26.14,13.25-53.17,27-106.3,27s-80.16-13.71-106.3-27C304.35,13.85,277,0,223.24,0s-81.1,13.85-107.52,27.25c-26.15,13.25-53.18,27-106.31,27C7,54.21,3.7,54.12,0,54V724H1719.66V56.92Z"/></g></svg>