<svg id="Layer_1" data-name="Layer 1" xmlns="http://www.w3.org/2000/svg" xmlns:xlink="http://www.w3.org/1999/xlink" viewBox="0 0 860.5 1003.65"><defs><style>.cls-1{fill:none;}.cls-2{clip-path:url(#clip-path);}.cls-3{fill:#fff;}</style><clipPath id="clip-path"><rect class="cls-1" width="860.5" height="1003.65"/></clipPath></defs><g class="cls-2"><path class="cls-3" d="M860.5,28.48V27.12c-26.58,0-40.1-6.86-53.18-13.49S780.43,0,753.53,0,713,6.93,699.74,13.63s-26.6,13.49-53.18,13.49-40.11-6.86-53.18-13.49S566.49,0,539.58,0,499,6.93,485.79,13.63s-26.6,13.49-53.18,13.49-40.1-6.86-53.18-13.49S352.54,0,325.64,0s-40.58,6.93-53.8,13.63c-13.07,6.63-26.6,13.49-53.18,13.49s-40.1-6.86-53.18-13.49S138.59,0,111.69,0,71.11,6.93,57.89,13.63,31.29,27.12,4.71,27.12c-1.2,0-2.86-.05-4.71-.13v976.66H860.33V28.48Z"/></g></svg>